<svg width="15" height="15" viewBox="0 0 9 12" fill="none" xmlns="http://www.w3.org/2000/svg">
<path d="M1.5 0C1.10218 0 0.720644 0.158035 0.43934 0.43934C0.158035 0.720644 0 1.10218 0 1.5V11.5C0 11.6326 0.0526785 11.7598 0.146447 11.8536C0.240215 11.9473 0.367392 12 0.5 12H2V9.5C2 9.36739 2.05268 9.24021 2.14645 9.14645C2.24021 9.05268 2.36739 9 2.5 9H6.5C6.63261 9 6.75979 9.05268 6.85355 9.14645C6.94732 9.24021 7 9.36739 7 9.5V12H8.5C8.63261 12 8.75979 11.9473 8.85355 11.8536C8.94732 11.7598 9 11.6326 9 11.5V6.5C9 6.10218 8.84196 5.72064 8.56066 5.43934C8.27936 5.15804 7.89782 5 7.5 5H7V1.5C7 1.10218 6.84196 0.720644 6.56066 0.43934C6.27936 0.158035 5.89782 0 5.5 0H1.5ZM3 2.5C3 2.63261 2.94732 2.75979 2.85355 2.85355C2.75979 2.94732 2.63261 3 2.5 3C2.36739 3 2.24021 2.94732 2.14645 2.85355C2.05268 2.75979 2 2.63261 2 2.5C2 2.36739 2.05268 2.24021 2.14645 2.14645C2.24021 2.05268 2.36739 2 2.5 2C2.63261 2 2.75979 2.05268 2.85355 2.14645C2.94732 2.24021 3 2.36739 3 2.5ZM3 5C3 5.13261 2.94732 5.25979 2.85355 5.35355C2.75979 5.44732 2.63261 5.5 2.5 5.5C2.36739 5.5 2.24021 5.44732 2.14645 5.35355C2.05268 5.25979 2 5.13261 2 5C2 4.86739 2.05268 4.74021 2.14645 4.64645C2.24021 4.55268 2.36739 4.5 2.5 4.5C2.63261 4.5 2.75979 4.55268 2.85355 4.64645C2.94732 4.74021 3 4.86739 3 5ZM3 7.5C3 7.63261 2.94732 7.75979 2.85355 7.85355C2.75979 7.94732 2.63261 8 2.5 8C2.36739 8 2.24021 7.94732 2.14645 7.85355C2.05268 7.75979 2 7.63261 2 7.5C2 7.36739 2.05268 7.24021 2.14645 7.14645C2.24021 7.05268 2.36739 7 2.5 7C2.63261 7 2.75979 7.05268 2.85355 7.14645C2.94732 7.24021 3 7.36739 3 7.5ZM5 2.5C5 2.63261 4.94732 2.75979 4.85355 2.85355C4.75979 2.94732 4.63261 3 4.5 3C4.36739 3 4.24021 2.94732 4.14645 2.85355C4.05268 2.75979 4 2.63261 4 2.5C4 2.36739 4.05268 2.24021 4.14645 2.14645C4.24021 2.05268 4.36739 2 4.5 2C4.63261 2 4.75979 2.05268 4.85355 2.14645C4.94732 2.24021 5 2.36739 5 2.5ZM5 5C5 5.13261 4.94732 5.25979 4.85355 5.35355C4.75979 5.44732 4.63261 5.5 4.5 5.5C4.36739 5.5 4.24021 5.44732 4.14645 5.35355C4.05268 5.25979 4 5.13261 4 5C4 4.86739 4.05268 4.74021 4.14645 4.64645C4.24021 4.55268 4.36739 4.5 4.5 4.5C4.63261 4.5 4.75979 4.55268 4.85355 4.64645C4.94732 4.74021 5 4.86739 5 5ZM5 7.5C5 7.63261 4.94732 7.75979 4.85355 7.85355C4.75979 7.94732 4.63261 8 4.5 8C4.36739 8 4.24021 7.94732 4.14645 7.85355C4.05268 7.75979 4 7.63261 4 7.5C4 7.36739 4.05268 7.24021 4.14645 7.14645C4.24021 7.05268 4.36739 7 4.5 7C4.63261 7 4.75979 7.05268 4.85355 7.14645C4.94732 7.24021 5 7.36739 5 7.5ZM7 7.5C7 7.63261 6.94732 7.75979 6.85355 7.85355C6.75979 7.94732 6.63261 8 6.5 8C6.36739 8 6.24021 7.94732 6.14645 7.85355C6.05268 7.75979 6 7.63261 6 7.5C6 7.36739 6.05268 7.24021 6.14645 7.14645C6.24021 7.05268 6.36739 7 6.5 7C6.63261 7 6.75979 7.05268 6.85355 7.14645C6.94732 7.24021 7 7.36739 7 7.5ZM6 12V10H5.003V12H6ZM4.003 12V10H3V12H4.003Z" fill="#725CE1"/>
</svg>
